<?xml version="1.0" encoding="UTF-8" standalone="no"?>
<!DOCTYPE svg PUBLIC "-//W3C//DTD SVG 1.1//EN"
 "http://www.w3.org/Graphics/SVG/1.1/DTD/svg11.dtd">
<!-- Generated by graphviz version 2.26.3 (20100126.1600)
 -->
<!-- Title: g Pages: 1 -->
<svg width="108pt" height="150pt"
 viewBox="0.00 0.00 108.00 150.00" xmlns="http://www.w3.org/2000/svg" xmlns:xlink="http://www.w3.org/1999/xlink">
<g id="graph1" class="graph" transform="scale(1 1) rotate(0) translate(4 146)">
<title>g</title>
<polygon fill="white" stroke="white" points="-4,5 -4,-146 105,-146 105,5 -4,5"/>
<!-- N1 -->
<g id="node1" class="node"><title>N1</title>
<polygon fill="#ffffff" stroke="#ffffff" stroke-width="1.5" points="11.5,-85 88.5,-85 100.5,-97 100.5,-129 88.5,-141 11.5,-141 -0.5,-129 -0.5,-97 11.5,-85"/>
<path fill="#ffffff" stroke="#ffffff" stroke-width="1.5" d="M88.5,-85C94.5,-85 100.5,-91 100.5,-97"/>
<path fill="#ffffff" stroke="#ffffff" stroke-width="1.5" d="M100.5,-129C100.5,-135 94.5,-141 88.5,-141"/>
<path fill="#ffffff" stroke="#ffffff" stroke-width="1.5" d="M11.5,-141C5.5,-141 -0.5,-135 -0.5,-129"/>
<path fill="#ffffff" stroke="#ffffff" stroke-width="1.5" d="M-0.5,-97C-0.5,-91 5.5,-85 11.5,-85"/>
<polyline fill="none" stroke="#2e3436" stroke-width="1.5" points="11.5,-85 88.5,-85 "/>
<path fill="none" stroke="#2e3436" stroke-width="1.5" d="M88.5,-85C94.5,-85 100.5,-91 100.5,-97"/>
<polyline fill="none" stroke="#2e3436" stroke-width="1.5" points="100.5,-97 100.5,-129 "/>
<path fill="none" stroke="#2e3436" stroke-width="1.5" d="M100.5,-129C100.5,-135 94.5,-141 88.5,-141"/>
<polyline fill="none" stroke="#2e3436" stroke-width="1.5" points="88.5,-141 11.5,-141 "/>
<path fill="none" stroke="#2e3436" stroke-width="1.5" d="M11.5,-141C5.5,-141 -0.5,-135 -0.5,-129"/>
<polyline fill="none" stroke="#2e3436" stroke-width="1.5" points="-0.5,-129 -0.5,-97 "/>
<path fill="none" stroke="#2e3436" stroke-width="1.5" d="M-0.5,-97C-0.5,-91 5.5,-85 11.5,-85"/>
<text text-anchor="middle" x="50" y="-129.8" font-family="FreeSans" font-size="8.00" fill="#1c2021">Node[1]</text>
<polyline fill="none" stroke="#2e3436" stroke-width="1.5" points="-0.5,-123 100.5,-123 "/>
<text text-anchor="start" x="7.5" y="-111.8" font-family="FreeSans" font-size="8.00" fill="#1c2021">name = &#39;A&#39;</text>
<text text-anchor="start" x="7.5" y="-101.8" font-family="FreeSans" font-size="8.00" fill="#1c2021">&lt;&lt;!!__??&gt;&gt; = &#39;Yes!&#39;</text>
<text text-anchor="start" x="7.5" y="-91.8" font-family="FreeSans" font-size="8.00" fill="#1c2021">age = 55</text>
</g>
<!-- N2 -->
<g id="node3" class="node"><title>N2</title>
<polygon fill="#ffffff" stroke="#ffffff" stroke-width="1.5" points="30,-1 70,-1 82,-13 82,-25 70,-37 30,-37 18,-25 18,-13 30,-1"/>
<path fill="#ffffff" stroke="#ffffff" stroke-width="1.5" d="M70,-1C76,-1 82,-7 82,-13"/>
<path fill="#ffffff" stroke="#ffffff" stroke-width="1.5" d="M82,-25C82,-31 76,-37 70,-37"/>
<path fill="#ffffff" stroke="#ffffff" stroke-width="1.5" d="M30,-37C24,-37 18,-31 18,-25"/>
<path fill="#ffffff" stroke="#ffffff" stroke-width="1.5" d="M18,-13C18,-7 24,-1 30,-1"/>
<polyline fill="none" stroke="#2e3436" stroke-width="1.5" points="30,-1 70,-1 "/>
<path fill="none" stroke="#2e3436" stroke-width="1.5" d="M70,-1C76,-1 82,-7 82,-13"/>
<polyline fill="none" stroke="#2e3436" stroke-width="1.5" points="82,-13 82,-25 "/>
<path fill="none" stroke="#2e3436" stroke-width="1.5" d="M82,-25C82,-31 76,-37 70,-37"/>
<polyline fill="none" stroke="#2e3436" stroke-width="1.5" points="70,-37 30,-37 "/>
<path fill="none" stroke="#2e3436" stroke-width="1.5" d="M30,-37C24,-37 18,-31 18,-25"/>
<polyline fill="none" stroke="#2e3436" stroke-width="1.5" points="18,-25 18,-13 "/>
<path fill="none" stroke="#2e3436" stroke-width="1.5" d="M18,-13C18,-7 24,-1 30,-1"/>
<text text-anchor="middle" x="50" y="-25.8" font-family="FreeSans" font-size="8.00" fill="#1c2021">Node[2]</text>
<polyline fill="none" stroke="#2e3436" stroke-width="1.5" points="18,-19 82,-19 "/>
<text text-anchor="start" x="26" y="-7.8" font-family="FreeSans" font-size="8.00" fill="#1c2021">name = &#39;B&#39;</text>
</g>
<!-- N1&#45;&gt;N2 -->
<g id="edge2" class="edge"><title>N1&#45;&gt;N2</title>
<path fill="none" stroke="#2e3436" stroke-width="2" d="M25.505,-84.9853C21.5972,-79.0727 18.1405,-72.611 16,-66 13.3873,-57.9308 16.1734,-50.0841 21.0889,-43.1868"/>
<polygon fill="#2e3436" stroke="#2e3436" points="26.1079,-37.1404 23.9145,-45.0669 24.0975,-40.3452 21.7023,-43.2306 21.3176,-42.9113 20.9329,-42.5919 23.328,-39.7065 18.7207,-40.7556 26.1079,-37.1404 26.1079,-37.1404"/>
<text text-anchor="middle" x="31.5" y="-58.8" font-family="FreeSans" font-size="8.00" fill="#2e3436">KNOWS</text>
</g>
<!-- N1&#45;&gt;N2 -->
<g id="edge4" class="edge"><title>N1&#45;&gt;N2</title>
<path fill="none" stroke="#4e9a06" stroke-width="2" d="M50,-84.7969C50,-72.1095 50,-57.2342 50,-44.8401"/>
<polygon fill="#4e9a06" stroke="#4e9a06" points="50,-37.1015 53.3751,-44.6015 50.5,-40.8515 50.5001,-44.6015 50.0001,-44.6015 49.5001,-44.6015 49.5,-40.8515 46.6251,-44.6016 50,-37.1015 50,-37.1015"/>
<text text-anchor="middle" x="67.5" y="-58.8" font-family="FreeSans" font-size="8.00" fill="#4e9a06">BLOCKS</text>
</g>
</g>
</svg>
