<?xml version="1.0" encoding="UTF-8" standalone="no"?>
<!DOCTYPE svg PUBLIC "-//W3C//DTD SVG 1.1//EN"
 "http://www.w3.org/Graphics/SVG/1.1/DTD/svg11.dtd">
<!-- Generated by graphviz version 2.26.3 (20100126.1600)
 -->
<!-- Title: g Pages: 1 -->
<svg width="92pt" height="140pt"
 viewBox="0.00 0.00 91.74 140.00" xmlns="http://www.w3.org/2000/svg" xmlns:xlink="http://www.w3.org/1999/xlink">
<g id="graph1" class="graph" transform="scale(1 1) rotate(0) translate(4 136)">
<title>g</title>
<polygon fill="white" stroke="white" points="-4,5 -4,-136 88.7446,-136 88.7446,5 -4,5"/>
<!-- N102 -->
<g id="node1" class="node"><title>N102</title>
<polygon fill="#ffffff" stroke="#ffffff" stroke-width="1.5" points="17.7446,-1 71.7446,-1 83.7446,-13 83.7446,-25 71.7446,-37 17.7446,-37 5.74457,-25 5.74457,-13 17.7446,-1"/>
<path fill="#ffffff" stroke="#ffffff" stroke-width="1.5" d="M71.7446,-1C77.7446,-1 83.7446,-7 83.7446,-13"/>
<path fill="#ffffff" stroke="#ffffff" stroke-width="1.5" d="M83.7446,-25C83.7446,-31 77.7446,-37 71.7446,-37"/>
<path fill="#ffffff" stroke="#ffffff" stroke-width="1.5" d="M17.7446,-37C11.7446,-37 5.74457,-31 5.74457,-25"/>
<path fill="#ffffff" stroke="#ffffff" stroke-width="1.5" d="M5.74457,-13C5.74457,-7 11.7446,-1 17.7446,-1"/>
<polyline fill="none" stroke="#2e3436" stroke-width="1.5" points="17.7446,-1 71.7446,-1 "/>
<path fill="none" stroke="#2e3436" stroke-width="1.5" d="M71.7446,-1C77.7446,-1 83.7446,-7 83.7446,-13"/>
<polyline fill="none" stroke="#2e3436" stroke-width="1.5" points="83.7446,-13 83.7446,-25 "/>
<path fill="none" stroke="#2e3436" stroke-width="1.5" d="M83.7446,-25C83.7446,-31 77.7446,-37 71.7446,-37"/>
<polyline fill="none" stroke="#2e3436" stroke-width="1.5" points="71.7446,-37 17.7446,-37 "/>
<path fill="none" stroke="#2e3436" stroke-width="1.5" d="M17.7446,-37C11.7446,-37 5.74457,-31 5.74457,-25"/>
<polyline fill="none" stroke="#2e3436" stroke-width="1.5" points="5.74457,-25 5.74457,-13 "/>
<path fill="none" stroke="#2e3436" stroke-width="1.5" d="M5.74457,-13C5.74457,-7 11.7446,-1 17.7446,-1"/>
<text text-anchor="middle" x="44.7446" y="-25.8" font-family="FreeSans" font-size="8.00" fill="#1c2021">Node[102]</text>
<polyline fill="none" stroke="#2e3436" stroke-width="1.5" points="5.74457,-19 83.7446,-19 "/>
<text text-anchor="start" x="13.7446" y="-7.8" font-family="FreeSans" font-size="8.00" fill="#1c2021">name = &#39;Sara&#39;</text>
</g>
<!-- N103 -->
<g id="node2" class="node"><title>N103</title>
<polygon fill="#ffffff" stroke="#ffffff" stroke-width="1.5" points="21.2446,-95 68.2446,-95 80.2446,-107 80.2446,-119 68.2446,-131 21.2446,-131 9.24457,-119 9.24457,-107 21.2446,-95"/>
<path fill="#ffffff" stroke="#ffffff" stroke-width="1.5" d="M68.2446,-95C74.2446,-95 80.2446,-101 80.2446,-107"/>
<path fill="#ffffff" stroke="#ffffff" stroke-width="1.5" d="M80.2446,-119C80.2446,-125 74.2446,-131 68.2446,-131"/>
<path fill="#ffffff" stroke="#ffffff" stroke-width="1.5" d="M21.2446,-131C15.2446,-131 9.24457,-125 9.24457,-119"/>
<path fill="#ffffff" stroke="#ffffff" stroke-width="1.5" d="M9.24457,-107C9.24457,-101 15.2446,-95 21.2446,-95"/>
<polyline fill="none" stroke="#2e3436" stroke-width="1.5" points="21.2446,-95 68.2446,-95 "/>
<path fill="none" stroke="#2e3436" stroke-width="1.5" d="M68.2446,-95C74.2446,-95 80.2446,-101 80.2446,-107"/>
<polyline fill="none" stroke="#2e3436" stroke-width="1.5" points="80.2446,-107 80.2446,-119 "/>
<path fill="none" stroke="#2e3436" stroke-width="1.5" d="M80.2446,-119C80.2446,-125 74.2446,-131 68.2446,-131"/>
<polyline fill="none" stroke="#2e3436" stroke-width="1.5" points="68.2446,-131 21.2446,-131 "/>
<path fill="none" stroke="#2e3436" stroke-width="1.5" d="M21.2446,-131C15.2446,-131 9.24457,-125 9.24457,-119"/>
<polyline fill="none" stroke="#2e3436" stroke-width="1.5" points="9.24457,-119 9.24457,-107 "/>
<path fill="none" stroke="#2e3436" stroke-width="1.5" d="M9.24457,-107C9.24457,-101 15.2446,-95 21.2446,-95"/>
<text text-anchor="middle" x="44.7446" y="-119.8" font-family="FreeSans" font-size="8.00" fill="#1c2021">Node[103]</text>
<polyline fill="none" stroke="#2e3436" stroke-width="1.5" points="9.24457,-113 80.2446,-113 "/>
<text text-anchor="start" x="17.2446" y="-101.8" font-family="FreeSans" font-size="8.00" fill="#1c2021">name = &#39;Joe&#39;</text>
</g>
<!-- N103&#45;&gt;N102 -->
<g id="edge2" class="edge"><title>N103&#45;&gt;N102</title>
<path fill="none" stroke="#2e3436" stroke-width="2" d="M17.0239,-94.6274C11.2468,-89.3547 5.94503,-83.0847 2.74457,-76 -0.914856,-67.8993 -0.914856,-64.1007 2.74457,-56 4.89488,-51.24 7.99374,-46.8477 11.548,-42.8786"/>
<polygon fill="#2e3436" stroke="#2e3436" points="17.0239,-37.3726 14.1282,-45.0704 14.7341,-40.3841 12.0897,-43.043 11.7352,-42.6904 11.3806,-42.3378 14.025,-39.6789 9.34213,-40.3105 17.0239,-37.3726 17.0239,-37.3726"/>
<text text-anchor="middle" x="25.7446" y="-68.8" font-family="FreeSans" font-size="8.00" fill="#2e3436">LOVES</text>
<text text-anchor="start" x="2.74457" y="-58.8" font-family="FreeSans" font-size="8.00" fill="#2e3436">foo = &#39;bar&#39;</text>
</g>
<!-- N103&#45;&gt;N102 -->
<g id="edge4" class="edge"><title>N103&#45;&gt;N102</title>
<path fill="none" stroke="#4e9a06" stroke-width="2" d="M48.9171,-94.6527C50.0747,-88.7323 51.1709,-82.1185 51.7446,-76 52.5744,-67.1499 52.5744,-64.8501 51.7446,-56 51.4039,-52.3672 50.8791,-48.5597 50.2666,-44.8264"/>
<polygon fill="#4e9a06" stroke="#4e9a06" points="48.9171,-37.3473 53.5703,-44.1288 50.0751,-40.9489 50.741,-44.6393 50.2489,-44.7281 49.7569,-44.8169 49.091,-41.1265 46.9276,-45.3274 48.9171,-37.3473 48.9171,-37.3473"/>
<text text-anchor="middle" x="65.7446" y="-63.8" font-family="FreeSans" font-size="8.00" fill="#4e9a06">knows</text>
</g>
</g>
</svg>
